General
Complete name                    : War and Peace.mkv
Format                           : Matroska
File size                        : 2.63 GiB
Duration                         : 3h 19mn
Overall bit rate                 : 1 888 Kbps


Video
ID                               : 1
Format                           : AVC

Codec ID                         : V_MPEG4/ISO/AVC
Duration                         : 3h 19mn
Bit rate                         : 1 658 Kbps
Width                            : 718 pixels
Height                           : 574 pixels
Display aspect ratio             : 16:9
Frame rate                       : 25.000 fps
Resolution                       : 8 bits
Colorimetry                      : 4:2:0
Scan type                        : Progressive
Bits/(Pixel*Frame)               : 0.161
Stream size                      : 2.31 GiB (88%)
Writing library                  : x264 core 79


Audio
ID                               : 2
Format                           : AC-3
Format/Info                      : Audio Coding 3
Codec ID                         : A_AC3
Duration                         : 3h 19mn
Bit rate mode                    : Constant
Bit rate                         : 192 Kbps
Channel(s)                       : 2 channels
Channel positions                : L R
Sampling rate                    : 48.0 KHz
Stream size                      : 274 MiB (10%)
Language                         : English

Text #1
Language                         : English

Text #2
Language                         : Danish



